<svg width="255" height="30" viewBox="0 0 255 30" fill="none" xmlns="http://www.w3.org/2000/svg">
<path d="M12.9543 1.2253C14.8734 1.2253 16.526 1.47563 17.9121 1.97628C18.9995 2.36907 20.0377 2.91595 21.0267 3.6169C21.4806 3.93862 21.5394 4.57798 21.183 5.0052L19.2594 7.31087C18.9107 7.72885 18.2947 7.78584 17.8397 7.48698C16.3787 6.52728 14.8036 6.04743 13.1142 6.04743C11.2217 6.04743 9.68905 6.83794 8.51623 8.41897C7.37007 10 6.79699 12.3847 6.79699 15.5731C6.79699 18.7615 7.37007 21.1331 8.51623 22.6877C9.66239 24.2161 11.235 24.9802 13.2341 24.9802C14.4603 24.9802 15.5131 24.7694 16.3928 24.3478C17.0371 24.039 17.7173 23.6311 18.4332 23.1243C18.8825 22.8062 19.5068 22.8791 19.8475 23.3115L21.6431 25.5903C21.9555 25.9868 21.9261 26.5576 21.5478 26.8919C19.203 28.964 16.3118 30 12.8743 30C10.3421 30 8.10308 29.4466 6.15728 28.3399C4.23813 27.2332 2.73213 25.5995 1.63928 23.4387C0.546425 21.2516 0 18.6298 0 15.5731C0 12.5955 0.559752 10.0264 1.67926 7.86561C2.79876 5.70488 4.34475 4.05797 6.31721 2.9249C8.28967 1.79183 10.502 1.2253 12.9543 1.2253Z" fill="#FE6579"/>
<path d="M32.61 7.62846C35.8352 7.62846 38.3541 8.64295 40.1666 10.6719C42.0058 12.6746 42.9254 15.3755 42.9254 18.7747C42.9254 22.3057 42.0191 25.0593 40.2066 27.0356C38.3941 29.0119 35.8619 30 32.61 30C29.3581 30 26.8258 29.025 25.0133 27.0751C23.2008 25.0988 22.2945 22.3452 22.2945 18.8142C22.2945 16.5744 22.6943 14.6245 23.494 12.9644C24.3203 11.278 25.5064 9.97365 27.0524 9.05138C28.625 8.10277 30.4776 7.62846 32.61 7.62846ZM32.61 12.253C31.3039 12.253 30.3443 12.78 29.7312 13.834C29.1182 14.8617 28.8116 16.5217 28.8116 18.8142C28.8116 21.1331 29.1182 22.8195 29.7312 23.8735C30.3443 24.9012 31.3039 25.415 32.61 25.415C33.916 25.415 34.8756 24.888 35.4887 23.834C36.1017 22.78 36.4083 21.0935 36.4083 18.7747C36.4083 16.5086 36.1017 14.8617 35.4887 13.834C34.8756 12.78 33.916 12.253 32.61 12.253Z" fill="#FA65ED"/>
<path d="M56.4638 22.7273C56.4638 24.2819 57.37 25.0593 59.1826 25.0593C59.8532 25.0593 60.5362 24.9618 61.2315 24.7668C61.7806 24.6129 62.3799 24.8764 62.5698 25.4141L63.416 27.8105C63.5798 28.2747 63.3835 28.7939 62.9324 28.9909C61.3924 29.6636 59.6094 30 57.5833 30C55.1044 30 53.2385 29.3017 51.9858 27.9051C50.7596 26.4822 50.1466 24.4928 50.1466 21.9368V5.26878C50.1466 4.71649 49.6989 4.26878 49.1466 4.26878H44.9093C44.357 4.26878 43.9093 3.82106 43.9093 3.26878V1C43.9093 0.447715 44.357 0 44.9093 0H55.4638C56.0161 0 56.4638 0.447715 56.4638 1V22.7273Z" fill="#8A73FE"/>
<path d="M76.5593 7.62846C79.7845 7.62846 82.3034 8.64295 84.1159 10.6719C85.9551 12.6746 86.8747 15.3755 86.8747 18.7747C86.8747 22.3057 85.9684 25.0593 84.1559 27.0356C82.3434 29.0119 79.8112 30 76.5593 30C73.3074 30 70.7752 29.025 68.9626 27.0751C67.1501 25.0988 66.2438 22.3452 66.2438 18.8142C66.2438 16.5744 66.6436 14.6245 67.4433 12.9644C68.2696 11.278 69.4557 9.97365 71.0017 9.05138C72.5744 8.10277 74.4269 7.62846 76.5593 7.62846ZM76.5593 12.253C75.2532 12.253 74.2936 12.78 73.6805 13.834C73.0675 14.8617 72.7609 16.5217 72.7609 18.8142C72.7609 21.1331 73.0675 22.8195 73.6805 23.8735C74.2936 24.9012 75.2532 25.415 76.5593 25.415C77.8654 25.415 78.8249 24.888 79.438 23.834C80.051 22.78 80.3576 21.0935 80.3576 18.7747C80.3576 16.5086 80.051 14.8617 79.438 13.834C78.8249 12.78 77.8654 12.253 76.5593 12.253Z" fill="#80FE95"/>
<path d="M105.531 7.70751C106.522 7.70751 107.448 7.83391 108.311 8.0867C108.751 8.21569 109.007 8.65897 108.947 9.1138L108.005 16.2456C107.939 16.743 107.515 17.1146 107.013 17.1146H104.892C104.339 17.1146 103.892 16.6669 103.892 16.1146V14.4369C103.892 13.8138 103.32 13.3382 102.753 13.597C102.034 13.9251 101.374 14.4389 100.773 15.1383C99.8943 16.1602 99.2036 17.442 98.7008 18.984C98.6692 19.0809 98.6539 19.1823 98.6539 19.2842V24.1383C98.6539 24.6906 99.1016 25.1383 99.6539 25.1383H101.852C102.404 25.1383 102.852 25.5861 102.852 26.1383V28.3281C102.852 28.8803 102.404 29.3281 101.852 29.3281H90.5379C89.9856 29.3281 89.5379 28.8803 89.5379 28.3281V26.1383C89.5379 25.5861 89.9856 25.1383 90.5379 25.1383H91.3367C91.889 25.1383 92.3367 24.6906 92.3367 24.1383V13.4901C92.3367 12.9378 91.889 12.4901 91.3367 12.4901H90.5379C89.9856 12.4901 89.5379 12.0424 89.5379 11.4901V9.33992C89.5379 8.78764 89.9856 8.33992 90.5379 8.33992H96.3846C96.8477 8.33992 97.2502 8.65787 97.3574 9.10838L97.5964 10.1125C97.8192 11.0487 99.2042 11.1994 99.7994 10.4433C100.233 9.89253 100.704 9.42858 101.213 9.05138C102.386 8.15547 103.825 7.70751 105.531 7.70751Z" fill="#F5F063"/>
<path d="M152.86 27.9293C152.458 27.9293 152.114 27.7536 151.83 27.4023C151.545 27.0509 151.403 26.5356 151.403 25.8564C151.403 25.06 151.522 23.924 151.759 22.4484C151.824 22.0792 151.897 21.6799 151.977 21.2505C152.083 20.6795 151.057 20.331 150.764 20.8322C150.005 22.1673 149.2 23.2565 148.347 24.0997C147.494 24.9429 146.617 25.3645 145.717 25.3645C144.84 25.3645 144.058 25.0249 143.371 24.3456C142.708 23.6664 142.376 22.4718 142.376 20.762C142.376 19.8016 142.459 18.7242 142.625 17.5296C142.791 16.3117 143.004 15.1054 143.265 13.9108C143.525 12.7163 143.786 11.6506 144.047 10.7137C144.307 9.75333 144.544 9.05065 144.757 8.60562C144.923 8.23086 145.089 7.98492 145.255 7.86781C145.421 7.72727 145.646 7.657 145.93 7.657C146.262 7.657 146.617 7.79754 146.996 8.07861C147.375 8.35968 147.565 8.82814 147.565 9.48397C147.565 9.64793 147.482 10.0344 147.316 10.6434C147.174 11.229 146.985 11.9551 146.748 12.8217C146.534 13.6649 146.309 14.5784 146.072 15.5621C145.835 16.5459 145.634 17.5296 145.468 18.5134C145.326 19.4971 145.255 20.3989 145.255 21.2187C145.255 21.6637 145.302 22.0268 145.397 22.3079C145.492 22.5889 145.729 22.7295 146.108 22.7295C146.44 22.7295 146.854 22.4016 147.352 21.7457C147.873 21.0899 148.43 20.2232 149.022 19.1458C149.638 18.0449 150.266 16.827 150.906 15.4919C151.569 14.1568 152.209 12.7866 152.825 11.3812C153.465 9.97584 154.045 8.64075 154.566 7.37593C154.756 6.95432 154.957 6.69668 155.171 6.60299C155.384 6.48587 155.621 6.42732 155.881 6.42732C156.308 6.42732 156.687 6.60299 157.019 6.95433C157.374 7.28224 157.552 7.71556 157.552 8.25428C157.552 8.60562 157.481 9.21461 157.338 10.0812C157.22 10.9479 157.042 11.9668 156.805 13.1379C156.592 14.2856 156.343 15.5036 156.059 16.7918C155.798 18.0801 155.538 19.3566 155.277 20.6214C155.017 21.8628 154.768 22.9988 154.531 24.0294C154.318 25.06 154.14 25.8915 153.998 26.5239C153.879 27.1095 153.713 27.4843 153.5 27.6482C153.311 27.8356 153.097 27.9293 152.86 27.9293Z" fill="#FDE4E3"/>
<path d="M176.16 11.9433C176.16 12.6929 175.923 13.4307 175.449 14.1568C174.975 14.8595 174.348 15.5387 173.566 16.1946C172.784 16.827 171.919 17.4242 170.971 17.9864C170.024 18.5485 169.076 19.0404 168.128 19.462C167.396 19.7878 166.713 20.0646 166.08 20.2925C165.743 20.4135 165.486 20.6962 165.426 21.0486C165.308 21.7328 165.249 22.3517 165.249 22.9051C165.249 23.3502 165.356 23.6664 165.569 23.8538C165.783 24.0411 166.114 24.1348 166.564 24.1348C167.559 24.1348 168.614 23.9592 169.727 23.6078C170.841 23.2565 171.978 22.7997 173.139 22.2376C174.3 21.6754 175.414 21.0782 176.48 20.4458C177.546 19.8134 178.518 19.2161 179.394 18.6539C180.295 18.0918 181.041 17.635 181.633 17.2837C182.226 16.9324 182.617 16.7567 182.806 16.7567C183.061 16.7567 183.259 16.8322 183.4 16.9833C183.432 17.018 183.463 17.0539 183.495 17.0897C183.628 17.2432 183.695 17.425 183.695 17.635C183.695 17.8224 183.398 18.1855 182.806 18.7242C182.237 19.2629 181.467 19.8953 180.496 20.6214C179.525 21.3241 178.435 22.0502 177.226 22.7997C176.018 23.5493 174.762 24.2519 173.459 24.9078C172.18 25.5636 170.936 26.0906 169.727 26.4888C168.543 26.887 167.477 27.0861 166.529 27.0861C165.297 27.0861 164.337 26.6293 163.65 25.7159C162.963 24.8024 162.619 23.3853 162.619 21.4646C162.619 20.1764 162.785 18.8764 163.117 17.5648C163.472 16.2531 163.946 15 164.539 13.8054C165.155 12.5875 165.83 11.51 166.564 10.5731C167.323 9.61279 168.116 8.86327 168.946 8.32455C169.775 7.76241 170.58 7.48133 171.362 7.48133C172.855 7.48133 174.028 7.89123 174.881 8.71102C175.734 9.53081 176.16 10.6083 176.16 11.9433ZM167.253 15.2864C166.881 16.1179 167.783 16.8554 168.555 16.3702C169.336 15.8783 170.059 15.3748 170.723 14.8595C171.386 14.3442 171.919 13.8054 172.322 13.2433C172.748 12.6577 172.962 12.0605 172.962 11.4515C172.962 10.5848 172.488 10.1515 171.54 10.1515C170.948 10.1515 170.32 10.5263 169.656 11.2758C169.017 12.0019 168.401 12.9505 167.808 14.1217C167.614 14.5049 167.43 14.8931 167.253 15.2864Z" fill="#FDE4E3"/>
<path d="M206.904 29.7211C205.98 29.7211 205.388 29.604 205.127 29.3698C204.867 29.159 204.736 28.9365 204.736 28.7022C204.736 28.4446 204.843 28.1869 205.056 27.9293C205.27 27.6951 205.518 27.496 205.803 27.332C206.324 27.0041 206.833 26.6528 207.331 26.278C207.852 25.9032 208.279 25.5168 208.61 25.1186C208.942 24.697 209.108 24.2871 209.108 23.8889C209.108 23.561 208.859 23.2213 208.361 22.87C207.864 22.4952 207.236 22.0971 206.478 21.6754C205.743 21.2538 204.997 20.7854 204.239 20.2701C203.504 19.7548 202.888 19.1927 202.391 18.5837C201.893 17.9513 201.644 17.2486 201.644 16.4756C201.644 16.0245 201.156 15.6621 200.761 15.8814C200.203 16.1921 199.644 16.5073 199.086 16.827C198.393 17.2154 197.716 17.5892 197.053 17.9483C196.729 18.1239 196.532 18.4626 196.505 18.8301C196.437 19.7748 196.207 20.7116 195.816 21.6403C195.342 22.7412 194.714 23.7484 193.932 24.6618C193.15 25.5753 192.274 26.3014 191.302 26.8401C190.355 27.3789 189.395 27.6482 188.424 27.6482C187.31 27.6482 186.457 27.3789 185.865 26.8401C185.272 26.278 184.976 25.5987 184.976 24.8024C184.976 23.7718 185.261 22.8934 185.829 22.1673C186.398 21.4178 187.239 20.7268 188.353 20.0944C188.85 19.7899 189.549 19.38 190.449 18.8647C191.131 18.4672 191.878 18.0442 192.689 17.5956C193.176 17.3258 193.311 16.6789 192.77 16.5455C192.581 16.4989 192.364 16.4756 192.12 16.4756C191.835 16.4756 191.373 16.5693 190.734 16.7567C190.094 16.9441 189.36 17.1783 188.53 17.4594C187.725 17.7404 186.895 18.0332 186.042 18.3377C185.213 18.6188 184.443 18.853 183.732 19.0404C183.045 19.2278 182.5 19.3215 182.098 19.3215C181.221 19.3215 180.546 19.099 180.072 18.6539C179.622 18.1855 179.396 17.5999 179.396 16.8972C179.396 16.2882 179.669 15.5504 180.214 14.6838C180.783 13.8172 181.505 12.9154 182.382 11.9785C183.282 11.0416 184.23 10.1632 185.225 9.34344C186.22 8.52364 187.168 7.8561 188.068 7.3408C188.969 6.8255 189.715 6.56785 190.307 6.56785C190.805 6.56785 191.184 6.74352 191.444 7.09486C191.729 7.4462 191.871 7.90294 191.871 8.46509C191.871 8.95696 191.658 9.36686 191.231 9.69477C190.867 9.9916 190.23 10.1637 189.322 10.211C189.13 10.221 188.943 10.2784 188.786 10.3891C188.375 10.6781 187.876 11.0556 187.286 11.5217C186.599 12.0605 185.912 12.6343 185.225 13.2433C184.562 13.8523 183.993 14.4261 183.519 14.9649C183.069 15.5036 182.844 15.9135 182.844 16.1946C182.844 16.3819 182.962 16.4756 183.199 16.4756C183.436 16.4756 183.875 16.3585 184.514 16.1243C185.178 15.8666 185.948 15.5856 186.824 15.2811C187.725 14.9766 188.649 14.7072 189.596 14.473C190.544 14.2153 191.421 14.0865 192.226 14.0865C193.567 14.0865 194.598 14.4065 195.318 15.0465C195.715 15.3997 196.289 15.5748 196.756 15.3204C197.743 14.7828 198.745 14.231 199.761 13.6649C201.025 12.9734 202.245 12.2924 203.423 11.6221C203.539 11.5559 203.641 11.4667 203.723 11.3613C204.573 10.2756 205.562 9.27509 206.691 8.35968C207.899 7.37593 209.108 6.59127 210.316 6.00571C211.525 5.42014 212.591 5.12736 213.515 5.12736C213.918 5.12736 214.226 5.24447 214.439 5.4787C214.676 5.6895 214.794 5.93544 214.794 6.21651C214.794 6.42732 214.723 6.66154 214.581 6.91919C214.462 7.17684 214.131 7.53989 213.586 8.00834C213.041 8.45337 212.129 9.08578 210.849 9.90558C210.138 10.374 209.368 10.8659 208.539 11.3812C207.765 11.8402 206.95 12.3196 206.094 12.8194C205.972 12.8904 205.866 12.986 205.786 13.1021C205.438 13.6082 205.148 14.1237 204.914 14.6487C204.677 15.2108 204.559 15.7729 204.559 16.3351C204.559 16.827 204.807 17.2837 205.305 17.7053C205.803 18.1035 206.419 18.5134 207.153 18.935C207.888 19.3566 208.61 19.8133 209.321 20.3052C210.056 20.7971 210.672 21.3592 211.169 21.9917C211.667 22.6241 211.915 23.3619 211.915 24.2051C211.915 24.8141 211.761 25.4465 211.453 26.1023C211.145 26.7347 210.743 27.3203 210.245 27.859C209.771 28.4212 209.238 28.8662 208.646 29.1941C208.053 29.5455 207.473 29.7211 206.904 29.7211ZM191.978 22.343C192.413 21.6548 191.678 20.9664 190.975 21.3777C190.966 21.3833 190.956 21.3888 190.947 21.3944C190.307 21.7457 189.798 22.0385 189.419 22.2727C189.016 22.5304 188.672 22.8114 188.388 23.1159C188.127 23.397 187.997 23.7601 187.997 24.2051C187.997 24.4159 188.056 24.6033 188.175 24.7672C188.293 24.9078 188.471 24.978 188.708 24.978C189.277 24.978 189.845 24.7321 190.414 24.2402C190.982 23.7249 191.504 23.0925 191.978 22.343Z" fill="#FDE4E3"/>
<path d="M231.757 11.3812C231.757 12.8803 231.034 14.3325 229.589 15.7378C228.231 17.0585 226.203 18.2757 223.506 19.3895C223.18 19.5241 222.941 19.8154 222.899 20.1653C222.857 20.5106 222.836 20.8149 222.836 21.0782C222.836 22.0151 222.955 22.6943 223.192 23.1159C223.452 23.5375 223.879 23.7484 224.471 23.7484C225.348 23.7484 226.331 23.479 227.421 22.9403C228.511 22.3781 229.636 21.6637 230.797 20.7971C231.958 19.907 233.096 18.9701 234.209 17.9864C235.346 17.0026 236.389 16.0774 237.337 15.2108C238.284 14.3207 239.09 13.6064 239.753 13.0676C240.417 12.5055 240.867 12.2244 241.104 12.2244C241.436 12.2244 241.708 12.3767 241.921 12.6812C242.135 12.9622 242.241 13.3487 242.241 13.8406C242.241 14.4496 242.206 15.1522 242.135 15.9486C242.103 16.2955 242.702 16.4483 242.86 16.1377C243.262 15.345 243.708 14.6144 244.196 13.946C245.144 12.6577 246.151 11.592 247.217 10.7488C248.283 9.90558 249.325 9.27317 250.344 8.85156C251.363 8.42995 252.24 8.21915 252.974 8.21915C253.661 8.21915 254.171 8.34797 254.502 8.60562C254.834 8.86327 255 9.16776 255 9.5191C255 9.84702 254.846 10.1515 254.538 10.4326C254.254 10.6902 253.59 11.0299 252.548 11.4515C251.339 11.9199 250.202 12.4704 249.136 13.1028C248.093 13.7352 247.122 14.6018 246.222 15.7027C245.321 16.7801 244.516 18.2206 243.805 20.0242C243.094 21.8277 242.49 24.1465 241.992 26.9807C241.898 27.5428 241.732 27.941 241.495 28.1752C241.258 28.4329 240.974 28.5617 240.642 28.5617C240.405 28.5617 240.168 28.4563 239.931 28.2455C239.694 28.0581 239.505 27.6014 239.362 26.8753C239.22 26.1257 239.149 24.9546 239.149 23.3619C239.149 22.2844 239.197 21.1133 239.291 19.8485C239.314 19.6025 239.339 19.3544 239.366 19.104C239.47 18.1244 238.226 17.522 237.53 18.2196C237.09 18.6615 236.634 19.1108 236.164 19.5674C234.837 20.8322 233.463 22.0151 232.041 23.1159C230.62 24.1934 229.222 25.0717 227.848 25.751C226.473 26.4302 225.194 26.7699 224.009 26.7699C222.754 26.7699 221.747 26.3366 220.988 25.4699C220.23 24.6033 219.851 23.315 219.851 21.6052C219.851 19.6377 220.112 17.8341 220.633 16.1946C221.154 14.555 221.829 13.1379 222.659 11.9433C223.488 10.7254 224.377 9.78846 225.324 9.13263C226.272 8.4768 227.184 8.14888 228.061 8.14888C229.245 8.14888 230.158 8.45337 230.797 9.06236C231.437 9.64793 231.757 10.4209 231.757 11.3812ZM224.481 14.4201C224.106 15.2795 225.054 15.9757 225.81 15.4211C225.826 15.4096 225.842 15.398 225.857 15.3865C226.71 14.7775 227.433 14.1568 228.025 13.5244C228.641 12.8685 228.949 12.2713 228.949 11.7325C228.949 11.4046 228.866 11.1704 228.701 11.0299C228.535 10.8893 228.25 10.8191 227.848 10.8191C227.208 10.8191 226.616 11.1353 226.071 11.7677C225.526 12.3767 225.04 13.1613 224.613 14.1217C224.568 14.2207 224.524 14.3202 224.481 14.4201Z" fill="#FDE4E3"/>
<path d="M117.33 25.9969C118.467 26.5825 119.676 26.8753 120.955 26.8753C122.187 26.8753 123.49 26.6176 124.864 26.1023C126.239 25.5636 127.577 24.8726 128.881 24.0294C130.207 23.1862 131.404 22.2844 132.47 21.3241C133.56 20.3404 134.425 19.3917 135.064 18.4783C135.704 17.5648 136.024 16.7918 136.024 16.1594C136.024 14.8478 135.728 13.8406 135.136 13.1379C134.543 12.4118 133.631 12.0487 132.399 12.0487C131.972 12.0487 131.345 12.1073 130.515 12.2244C129.71 12.3415 128.821 12.4821 127.85 12.646C126.902 12.7866 125.99 12.9388 125.113 13.1028C124.26 13.2433 123.573 13.3487 123.052 13.419C122.602 13.4892 122.27 13.6415 122.057 13.8757C121.844 14.1099 121.737 14.3559 121.737 14.6135C121.737 14.9883 121.938 15.363 122.341 15.7378C122.768 16.1126 123.348 16.3 124.083 16.3C124.438 16.3 125.007 16.2531 125.789 16.1594C126.57 16.0657 127.435 15.9486 128.383 15.8081C129.354 15.6675 130.29 15.5153 131.191 15.3513C131.354 15.3216 131.512 15.2923 131.665 15.2634C132.436 15.1175 133.018 15.8315 132.537 16.4523C132.399 16.6316 132.246 16.8151 132.079 17.0026C131.416 17.7756 130.61 18.5602 129.662 19.3566C128.715 20.1296 127.72 20.8439 126.677 21.4998C125.658 22.1556 124.663 22.6826 123.692 23.0808C122.72 23.479 121.879 23.6781 121.168 23.6781C119.794 23.6781 118.716 23.315 117.934 22.5889C117.152 21.8628 116.761 20.8088 116.761 19.4269C116.761 18.5368 116.987 17.5765 117.437 16.5459C117.887 15.5153 118.491 14.4613 119.249 13.3838C120.007 12.283 120.837 11.2172 121.737 10.1866C122.637 9.13263 123.55 8.16059 124.474 7.27053C125.398 6.35705 126.262 5.57239 127.068 4.91656C127.874 4.26072 128.537 3.76885 129.058 3.44093C129.532 3.13644 129.852 2.84365 130.018 2.56258C130.184 2.25809 130.267 1.98873 130.267 1.7545C130.243 1.26263 130.053 0.899575 129.698 0.665349C129.366 0.407701 128.975 0.278876 128.525 0.278876C128.17 0.278876 127.554 0.58337 126.677 1.19236C125.8 1.80135 124.793 2.63285 123.656 3.68687C122.519 4.71746 121.358 5.90031 120.173 7.2354C118.989 8.54707 117.887 9.94071 116.868 11.4163C115.873 12.8685 115.056 14.309 114.416 15.7378C113.8 17.1432 113.492 18.4665 113.492 19.7079C113.492 21.1836 113.847 22.4601 114.558 23.5375C115.269 24.5916 116.193 25.4114 117.33 25.9969Z" fill="#FDE4E3"/>
</svg>
